<mxfile host="app.diagrams.net" modified="2024-01-21T16:52:10.200Z" agent="Mozilla/5.0 (Macintosh; Intel Mac OS X 10_15_7) AppleWebKit/537.36 (KHTML, like Gecko) Chrome/120.0.0.0 Safari/537.36" etag="a3W8uZCtZeVDTggj4YQG" version="22.1.18" type="github">
  <diagram name="第 1 页" id="mAII5r3sc6-13Wg525YB">
    <mxGraphModel dx="2295" dy="894" grid="1" gridSize="10" guides="1" tooltips="1" connect="1" arrows="1" fold="1" page="1" pageScale="1" pageWidth="827" pageHeight="1169" math="0" shadow="0">
      <root>
        <mxCell id="0" />
        <mxCell id="1" parent="0" />
        <mxCell id="lIwQOKpQqBY4vv0LnBt--6" value="" style="rounded=1;whiteSpace=wrap;html=1;strokeWidth=2;fillWeight=4;hachureGap=8;hachureAngle=45;fillColor=none;sketch=1;" parent="1" vertex="1">
          <mxGeometry x="80" y="270" width="740" height="490" as="geometry" />
        </mxCell>
        <mxCell id="lIwQOKpQqBY4vv0LnBt--3" value="" style="shape=flexArrow;endArrow=classic;html=1;rounded=0;fillColor=#cdeb8b;strokeColor=#36393d;" parent="1" edge="1">
          <mxGeometry width="50" height="50" relative="1" as="geometry">
            <mxPoint x="450" y="220" as="sourcePoint" />
            <mxPoint x="449.5" y="260" as="targetPoint" />
          </mxGeometry>
        </mxCell>
        <mxCell id="lIwQOKpQqBY4vv0LnBt--4" value="&lt;b&gt;&lt;font style=&quot;font-size: 24px;&quot;&gt;Server&lt;/font&gt;&lt;/b&gt;" style="text;html=1;strokeColor=none;fillColor=none;align=center;verticalAlign=middle;whiteSpace=wrap;rounded=0;fontFamily=Comic Sans MS;" parent="1" vertex="1">
          <mxGeometry x="700" y="390" width="60" height="30" as="geometry" />
        </mxCell>
        <mxCell id="lIwQOKpQqBY4vv0LnBt--5" value="&lt;h1&gt;Client&lt;/h1&gt;" style="rounded=1;whiteSpace=wrap;html=1;strokeWidth=2;fillWeight=4;hachureGap=8;hachureAngle=45;fillColor=#d5e8d4;sketch=1;strokeColor=#82b366;fontFamily=Comic Sans MS;fontStyle=0" parent="1" vertex="1">
          <mxGeometry x="390" y="150" width="120" height="60" as="geometry" />
        </mxCell>
        <mxCell id="lIwQOKpQqBY4vv0LnBt--7" value="连接器：管理连接，权限验证" style="rounded=1;whiteSpace=wrap;html=1;strokeWidth=2;fillWeight=4;hachureGap=8;hachureAngle=45;fillColor=#d5e8d4;sketch=1;strokeColor=#82b366;fontSize=20;fontStyle=0;fontFamily=Comic Sans MS;" parent="1" vertex="1">
          <mxGeometry x="310" y="310" width="270" height="40" as="geometry" />
        </mxCell>
        <mxCell id="lIwQOKpQqBY4vv0LnBt--8" value="&lt;font style=&quot;font-size: 20px;&quot;&gt;&lt;span&gt;缓存&lt;/span&gt;&lt;/font&gt;" style="rounded=1;whiteSpace=wrap;html=1;strokeWidth=2;fillWeight=4;hachureGap=8;hachureAngle=45;fillColor=#d5e8d4;sketch=1;strokeColor=#82b366;fontFamily=Comic Sans MS;fontStyle=0" parent="1" vertex="1">
          <mxGeometry x="200" y="420" width="120" height="60" as="geometry" />
        </mxCell>
        <mxCell id="lIwQOKpQqBY4vv0LnBt--9" value="" style="shape=flexArrow;endArrow=classic;html=1;rounded=0;entryX=0.167;entryY=0.25;entryDx=0;entryDy=0;entryPerimeter=0;fillColor=#cdeb8b;strokeColor=#36393d;" parent="1" edge="1">
          <mxGeometry width="50" height="50" relative="1" as="geometry">
            <mxPoint x="364.75" y="359.44" as="sourcePoint" />
            <mxPoint x="300" y="400" as="targetPoint" />
          </mxGeometry>
        </mxCell>
        <mxCell id="lIwQOKpQqBY4vv0LnBt--11" value="" style="shape=flexArrow;endArrow=classic;html=1;rounded=0;fillColor=#cdeb8b;strokeColor=#36393d;" parent="1" edge="1">
          <mxGeometry width="50" height="50" relative="1" as="geometry">
            <mxPoint x="490" y="360" as="sourcePoint" />
            <mxPoint x="565" y="410" as="targetPoint" />
          </mxGeometry>
        </mxCell>
        <mxCell id="lIwQOKpQqBY4vv0LnBt--12" value="&lt;font style=&quot;font-size: 20px;&quot;&gt;&lt;span&gt;分析器：词法分析&lt;/span&gt;&lt;/font&gt;" style="rounded=1;whiteSpace=wrap;html=1;strokeWidth=2;fillWeight=4;hachureGap=8;hachureAngle=45;fillColor=#d5e8d4;sketch=1;strokeColor=#82b366;fontFamily=Comic Sans MS;fontStyle=0" parent="1" vertex="1">
          <mxGeometry x="500" y="420" width="120" height="60" as="geometry" />
        </mxCell>
        <mxCell id="lIwQOKpQqBY4vv0LnBt--13" value="" style="shape=flexArrow;endArrow=classic;html=1;rounded=0;fillColor=#cdeb8b;strokeColor=#36393d;" parent="1" edge="1">
          <mxGeometry width="50" height="50" relative="1" as="geometry">
            <mxPoint x="559.5" y="490" as="sourcePoint" />
            <mxPoint x="559.5" y="540" as="targetPoint" />
          </mxGeometry>
        </mxCell>
        <mxCell id="lIwQOKpQqBY4vv0LnBt--15" value="&lt;font style=&quot;font-size: 20px;&quot;&gt;&lt;span&gt;优化器：生成执行计划，选择索引&lt;/span&gt;&lt;/font&gt;" style="rounded=1;whiteSpace=wrap;html=1;strokeWidth=2;fillWeight=4;hachureGap=8;hachureAngle=45;fillColor=#d5e8d4;sketch=1;strokeColor=#82b366;fontFamily=Comic Sans MS;fontStyle=0" parent="1" vertex="1">
          <mxGeometry x="445" y="555" width="230" height="65" as="geometry" />
        </mxCell>
        <mxCell id="lIwQOKpQqBY4vv0LnBt--16" value="&lt;font style=&quot;font-size: 20px;&quot;&gt;&lt;span&gt;执行器：操作引擎&lt;/span&gt;&lt;/font&gt;" style="rounded=1;whiteSpace=wrap;html=1;strokeWidth=2;fillWeight=4;hachureGap=8;hachureAngle=45;fillColor=#d5e8d4;sketch=1;strokeColor=#82b366;fontFamily=Comic Sans MS;fontStyle=0" parent="1" vertex="1">
          <mxGeometry x="500" y="690" width="120" height="60" as="geometry" />
        </mxCell>
        <mxCell id="lIwQOKpQqBY4vv0LnBt--19" value="" style="shape=flexArrow;endArrow=classic;html=1;rounded=0;fillColor=#cdeb8b;strokeColor=#36393d;" parent="1" edge="1">
          <mxGeometry width="50" height="50" relative="1" as="geometry">
            <mxPoint x="559.5" y="630" as="sourcePoint" />
            <mxPoint x="559.5" y="680" as="targetPoint" />
          </mxGeometry>
        </mxCell>
        <mxCell id="lIwQOKpQqBY4vv0LnBt--20" value="" style="shape=flexArrow;endArrow=classic;html=1;rounded=0;fillColor=#cdeb8b;strokeColor=#36393d;" parent="1" edge="1">
          <mxGeometry width="50" height="50" relative="1" as="geometry">
            <mxPoint x="449.5" y="780" as="sourcePoint" />
            <mxPoint x="449.5" y="830" as="targetPoint" />
          </mxGeometry>
        </mxCell>
        <mxCell id="lIwQOKpQqBY4vv0LnBt--21" value="" style="rounded=1;whiteSpace=wrap;html=1;strokeWidth=2;fillWeight=4;hachureGap=8;hachureAngle=45;fillColor=none;sketch=1;" parent="1" vertex="1">
          <mxGeometry x="90" y="860" width="730" height="120" as="geometry" />
        </mxCell>
        <mxCell id="lIwQOKpQqBY4vv0LnBt--22" value="存储引擎" style="text;html=1;strokeColor=none;fillColor=none;align=center;verticalAlign=middle;whiteSpace=wrap;rounded=0;fontFamily=Comic Sans MS;fontSize=20;" parent="1" vertex="1">
          <mxGeometry x="700" y="890" width="100" height="40" as="geometry" />
        </mxCell>
        <mxCell id="lIwQOKpQqBY4vv0LnBt--23" value="InnoDB" style="ellipse;whiteSpace=wrap;html=1;strokeWidth=2;fillWeight=2;hachureGap=8;fillColor=#d5e8d4;fillStyle=dots;sketch=1;fontFamily=Comic Sans MS;fontSize=20;strokeColor=#82b366;" parent="1" vertex="1">
          <mxGeometry x="150" y="880" width="120" height="60" as="geometry" />
        </mxCell>
        <mxCell id="lIwQOKpQqBY4vv0LnBt--24" value="MyISAM" style="ellipse;whiteSpace=wrap;html=1;strokeWidth=2;fillWeight=2;hachureGap=8;fillColor=#d5e8d4;fillStyle=dots;sketch=1;fontFamily=Comic Sans MS;fontSize=20;strokeColor=#82b366;" parent="1" vertex="1">
          <mxGeometry x="310" y="880" width="120" height="60" as="geometry" />
        </mxCell>
        <mxCell id="vDOKeEcO5x0YCkHmLcpW-7" style="edgeStyle=orthogonalEdgeStyle;rounded=0;orthogonalLoop=1;jettySize=auto;html=1;exitX=0.5;exitY=1;exitDx=0;exitDy=0;entryX=0.5;entryY=0;entryDx=0;entryDy=0;strokeWidth=3;" parent="1" source="vDOKeEcO5x0YCkHmLcpW-4" target="vDOKeEcO5x0YCkHmLcpW-5" edge="1">
          <mxGeometry relative="1" as="geometry" />
        </mxCell>
        <mxCell id="vDOKeEcO5x0YCkHmLcpW-4" value="&lt;font style=&quot;font-size: 22px;&quot; face=&quot;Comic Sans MS&quot;&gt;执行器想要更新记录&lt;/font&gt;" style="rounded=1;whiteSpace=wrap;html=1;strokeWidth=2;fillWeight=4;hachureGap=8;hachureAngle=45;fillColor=#fff2cc;sketch=1;strokeColor=#d6b656;" parent="1" vertex="1">
          <mxGeometry x="190" y="1120" width="260" height="70" as="geometry" />
        </mxCell>
        <mxCell id="vDOKeEcO5x0YCkHmLcpW-8" style="edgeStyle=orthogonalEdgeStyle;rounded=0;orthogonalLoop=1;jettySize=auto;html=1;exitX=0.5;exitY=1;exitDx=0;exitDy=0;strokeWidth=3;" parent="1" source="vDOKeEcO5x0YCkHmLcpW-5" target="vDOKeEcO5x0YCkHmLcpW-6" edge="1">
          <mxGeometry relative="1" as="geometry" />
        </mxCell>
        <mxCell id="vDOKeEcO5x0YCkHmLcpW-5" value="&lt;font face=&quot;Comic Sans MS&quot;&gt;&lt;span style=&quot;font-size: 22px;&quot;&gt;InnoDB将数据页添加进Buffer Pool&lt;/span&gt;&lt;/font&gt;" style="rounded=1;whiteSpace=wrap;html=1;strokeWidth=2;fillWeight=4;hachureGap=8;hachureAngle=45;fillColor=#fff2cc;sketch=1;strokeColor=#d6b656;" parent="1" vertex="1">
          <mxGeometry x="190" y="1270" width="260" height="70" as="geometry" />
        </mxCell>
        <mxCell id="vDOKeEcO5x0YCkHmLcpW-10" style="edgeStyle=orthogonalEdgeStyle;rounded=0;orthogonalLoop=1;jettySize=auto;html=1;exitX=0.5;exitY=1;exitDx=0;exitDy=0;strokeWidth=3;" parent="1" source="vDOKeEcO5x0YCkHmLcpW-6" target="vDOKeEcO5x0YCkHmLcpW-9" edge="1">
          <mxGeometry relative="1" as="geometry" />
        </mxCell>
        <mxCell id="vDOKeEcO5x0YCkHmLcpW-6" value="&lt;font face=&quot;Comic Sans MS&quot;&gt;&lt;span style=&quot;font-size: 22px;&quot;&gt;将记录旧值写入Undo log&lt;/span&gt;&lt;/font&gt;" style="rounded=1;whiteSpace=wrap;html=1;strokeWidth=2;fillWeight=4;hachureGap=8;hachureAngle=45;fillColor=#fff2cc;sketch=1;strokeColor=#d6b656;" parent="1" vertex="1">
          <mxGeometry x="190" y="1440" width="260" height="70" as="geometry" />
        </mxCell>
        <mxCell id="vDOKeEcO5x0YCkHmLcpW-14" style="edgeStyle=orthogonalEdgeStyle;rounded=0;orthogonalLoop=1;jettySize=auto;html=1;exitX=0.5;exitY=1;exitDx=0;exitDy=0;strokeWidth=3;" parent="1" source="vDOKeEcO5x0YCkHmLcpW-9" target="vDOKeEcO5x0YCkHmLcpW-11" edge="1">
          <mxGeometry relative="1" as="geometry" />
        </mxCell>
        <mxCell id="vDOKeEcO5x0YCkHmLcpW-9" value="&lt;font face=&quot;Comic Sans MS&quot;&gt;&lt;span style=&quot;font-size: 22px;&quot;&gt;执行器调用InnoDB修改数据&lt;/span&gt;&lt;/font&gt;" style="rounded=1;whiteSpace=wrap;html=1;strokeWidth=2;fillWeight=4;hachureGap=8;hachureAngle=45;fillColor=#fff2cc;sketch=1;strokeColor=#d6b656;" parent="1" vertex="1">
          <mxGeometry x="190" y="1590" width="260" height="70" as="geometry" />
        </mxCell>
        <mxCell id="vDOKeEcO5x0YCkHmLcpW-13" style="edgeStyle=orthogonalEdgeStyle;rounded=0;orthogonalLoop=1;jettySize=auto;html=1;exitX=0.5;exitY=1;exitDx=0;exitDy=0;strokeWidth=3;" parent="1" source="vDOKeEcO5x0YCkHmLcpW-11" target="vDOKeEcO5x0YCkHmLcpW-12" edge="1">
          <mxGeometry relative="1" as="geometry" />
        </mxCell>
        <mxCell id="vDOKeEcO5x0YCkHmLcpW-11" value="&lt;font face=&quot;Comic Sans MS&quot;&gt;&lt;span style=&quot;font-size: 22px;&quot;&gt;InnoDB修改页为脏页，添加进Flush链表&lt;/span&gt;&lt;/font&gt;" style="rounded=1;whiteSpace=wrap;html=1;strokeWidth=2;fillWeight=4;hachureGap=8;hachureAngle=45;fillColor=#fff2cc;sketch=1;strokeColor=#d6b656;" parent="1" vertex="1">
          <mxGeometry x="190" y="1710" width="260" height="70" as="geometry" />
        </mxCell>
        <mxCell id="vDOKeEcO5x0YCkHmLcpW-17" style="edgeStyle=orthogonalEdgeStyle;rounded=0;orthogonalLoop=1;jettySize=auto;html=1;exitX=0.5;exitY=1;exitDx=0;exitDy=0;strokeWidth=3;" parent="1" source="vDOKeEcO5x0YCkHmLcpW-12" target="vDOKeEcO5x0YCkHmLcpW-16" edge="1">
          <mxGeometry relative="1" as="geometry" />
        </mxCell>
        <mxCell id="vDOKeEcO5x0YCkHmLcpW-12" value="&lt;font face=&quot;Comic Sans MS&quot;&gt;&lt;span style=&quot;font-size: 22px;&quot;&gt;写入Redolog&lt;br&gt;（prepare阶段）&lt;/span&gt;&lt;/font&gt;" style="rounded=1;whiteSpace=wrap;html=1;strokeWidth=2;fillWeight=4;hachureGap=8;hachureAngle=45;fillColor=#fff2cc;sketch=1;strokeColor=#d6b656;" parent="1" vertex="1">
          <mxGeometry x="190" y="1850" width="260" height="70" as="geometry" />
        </mxCell>
        <mxCell id="vDOKeEcO5x0YCkHmLcpW-18" style="edgeStyle=orthogonalEdgeStyle;rounded=0;orthogonalLoop=1;jettySize=auto;html=1;exitX=0.5;exitY=1;exitDx=0;exitDy=0;strokeWidth=3;" parent="1" source="vDOKeEcO5x0YCkHmLcpW-16" edge="1">
          <mxGeometry relative="1" as="geometry">
            <mxPoint x="320" y="2140" as="targetPoint" />
          </mxGeometry>
        </mxCell>
        <mxCell id="vDOKeEcO5x0YCkHmLcpW-16" value="&lt;font face=&quot;Comic Sans MS&quot;&gt;&lt;span style=&quot;font-size: 22px;&quot;&gt;写入BinLog&lt;/span&gt;&lt;/font&gt;" style="rounded=1;whiteSpace=wrap;html=1;strokeWidth=2;fillWeight=4;hachureGap=8;hachureAngle=45;fillColor=#fff2cc;sketch=1;strokeColor=#d6b656;" parent="1" vertex="1">
          <mxGeometry x="190" y="1990" width="260" height="70" as="geometry" />
        </mxCell>
        <mxCell id="vDOKeEcO5x0YCkHmLcpW-19" value="&lt;font face=&quot;Comic Sans MS&quot;&gt;&lt;span style=&quot;font-size: 22px;&quot;&gt;写入Redolog&lt;br&gt;（commit状态）&lt;br&gt;&lt;/span&gt;&lt;/font&gt;" style="rounded=1;whiteSpace=wrap;html=1;strokeWidth=2;fillWeight=4;hachureGap=8;hachureAngle=45;fillColor=#fff2cc;sketch=1;strokeColor=#d6b656;" parent="1" vertex="1">
          <mxGeometry x="190" y="2140" width="260" height="70" as="geometry" />
        </mxCell>
        <mxCell id="vDOKeEcO5x0YCkHmLcpW-21" value="" style="endArrow=classic;html=1;rounded=0;strokeWidth=3;" parent="1" edge="1">
          <mxGeometry width="50" height="50" relative="1" as="geometry">
            <mxPoint x="-60" y="1780" as="sourcePoint" />
            <mxPoint x="320" y="1820" as="targetPoint" />
          </mxGeometry>
        </mxCell>
        <mxCell id="vDOKeEcO5x0YCkHmLcpW-22" value="Commit" style="text;strokeColor=none;fillColor=none;html=1;fontSize=24;fontStyle=1;verticalAlign=middle;align=center;" parent="1" vertex="1">
          <mxGeometry x="-170" y="1754" width="100" height="40" as="geometry" />
        </mxCell>
        <mxCell id="dmPbnu_MyOu8hNa2xNqB-2" value="" style="rounded=1;whiteSpace=wrap;html=1;strokeWidth=2;fillWeight=4;hachureGap=8;hachureAngle=45;fillColor=none;sketch=1;" vertex="1" parent="1">
          <mxGeometry x="-580" y="2563" width="550" height="537" as="geometry" />
        </mxCell>
        <mxCell id="dmPbnu_MyOu8hNa2xNqB-3" value="&lt;font face=&quot;Comic Sans MS&quot; style=&quot;font-size: 22px;&quot;&gt;BinLog&lt;/font&gt;" style="rounded=1;whiteSpace=wrap;html=1;strokeWidth=2;fillWeight=4;hachureGap=8;hachureAngle=45;fillColor=#1ba1e2;sketch=1;" vertex="1" parent="1">
          <mxGeometry x="-540" y="2610" width="240" height="130" as="geometry" />
        </mxCell>
        <mxCell id="dmPbnu_MyOu8hNa2xNqB-4" value="Master" style="text;strokeColor=none;fillColor=none;html=1;fontSize=24;fontStyle=1;verticalAlign=middle;align=center;" vertex="1" parent="1">
          <mxGeometry x="-220" y="3033" width="100" height="40" as="geometry" />
        </mxCell>
        <mxCell id="dmPbnu_MyOu8hNa2xNqB-5" value="" style="rounded=1;whiteSpace=wrap;html=1;strokeWidth=2;fillWeight=4;hachureGap=8;hachureAngle=45;fillColor=none;sketch=1;" vertex="1" parent="1">
          <mxGeometry x="64" y="2560" width="700" height="540" as="geometry" />
        </mxCell>
        <mxCell id="dmPbnu_MyOu8hNa2xNqB-6" value="Slave" style="text;strokeColor=none;fillColor=none;html=1;fontSize=24;fontStyle=1;verticalAlign=middle;align=center;" vertex="1" parent="1">
          <mxGeometry x="620" y="3033" width="100" height="40" as="geometry" />
        </mxCell>
        <mxCell id="dmPbnu_MyOu8hNa2xNqB-7" value="" style="shape=cylinder3;whiteSpace=wrap;html=1;boundedLbl=1;backgroundOutline=1;size=15;rotation=90;" vertex="1" parent="1">
          <mxGeometry x="-170" y="2571.75" width="30" height="206.5" as="geometry" />
        </mxCell>
        <mxCell id="dmPbnu_MyOu8hNa2xNqB-8" value="&lt;font face=&quot;Comic Sans MS&quot; style=&quot;font-size: 15px;&quot;&gt;Binary log dump&amp;nbsp;线程&lt;/font&gt;" style="text;strokeColor=none;fillColor=none;html=1;fontSize=24;fontStyle=1;verticalAlign=middle;align=center;" vertex="1" parent="1">
          <mxGeometry x="-220" y="2655" width="100" height="40" as="geometry" />
        </mxCell>
        <mxCell id="dmPbnu_MyOu8hNa2xNqB-9" style="edgeStyle=orthogonalEdgeStyle;rounded=0;orthogonalLoop=1;jettySize=auto;html=1;entryX=0.5;entryY=1;entryDx=0;entryDy=0;entryPerimeter=0;strokeWidth=2;" edge="1" parent="1" source="dmPbnu_MyOu8hNa2xNqB-3" target="dmPbnu_MyOu8hNa2xNqB-7">
          <mxGeometry relative="1" as="geometry" />
        </mxCell>
        <mxCell id="dmPbnu_MyOu8hNa2xNqB-15" style="edgeStyle=orthogonalEdgeStyle;rounded=0;orthogonalLoop=1;jettySize=auto;html=1;exitX=0.5;exitY=0;exitDx=0;exitDy=0;exitPerimeter=0;strokeWidth=2;fontSize=2;" edge="1" parent="1" source="dmPbnu_MyOu8hNa2xNqB-11" target="dmPbnu_MyOu8hNa2xNqB-13">
          <mxGeometry relative="1" as="geometry" />
        </mxCell>
        <mxCell id="dmPbnu_MyOu8hNa2xNqB-11" value="" style="shape=cylinder3;whiteSpace=wrap;html=1;boundedLbl=1;backgroundOutline=1;size=15;rotation=90;" vertex="1" parent="1">
          <mxGeometry x="180" y="2583.5" width="30" height="183" as="geometry" />
        </mxCell>
        <mxCell id="dmPbnu_MyOu8hNa2xNqB-12" value="&lt;font style=&quot;font-size: 15px;&quot;&gt;IO线程&lt;/font&gt;" style="text;strokeColor=none;fillColor=none;html=1;fontSize=24;fontStyle=1;verticalAlign=middle;align=center;fontFamily=Comic Sans MS;" vertex="1" parent="1">
          <mxGeometry x="140" y="2655" width="100" height="40" as="geometry" />
        </mxCell>
        <mxCell id="dmPbnu_MyOu8hNa2xNqB-32" style="edgeStyle=orthogonalEdgeStyle;rounded=0;orthogonalLoop=1;jettySize=auto;html=1;exitX=0;exitY=0.5;exitDx=0;exitDy=0;entryX=0;entryY=0.5;entryDx=0;entryDy=0;strokeWidth=2;" edge="1" parent="1" source="dmPbnu_MyOu8hNa2xNqB-13" target="dmPbnu_MyOu8hNa2xNqB-30">
          <mxGeometry relative="1" as="geometry">
            <Array as="points">
              <mxPoint x="90" y="2816" />
              <mxPoint x="90" y="2975" />
            </Array>
          </mxGeometry>
        </mxCell>
        <mxCell id="dmPbnu_MyOu8hNa2xNqB-33" value="消费" style="edgeLabel;html=1;align=center;verticalAlign=middle;resizable=0;points=[];" vertex="1" connectable="0" parent="dmPbnu_MyOu8hNa2xNqB-32">
          <mxGeometry x="0.0243" relative="1" as="geometry">
            <mxPoint y="-1" as="offset" />
          </mxGeometry>
        </mxCell>
        <mxCell id="dmPbnu_MyOu8hNa2xNqB-13" value="&lt;font style=&quot;font-size: 22px;&quot; face=&quot;Comic Sans MS&quot;&gt;relay log&lt;/font&gt;" style="rounded=1;whiteSpace=wrap;html=1;strokeWidth=2;fillWeight=4;hachureGap=8;hachureAngle=45;fillColor=#1ba1e2;sketch=1;" vertex="1" parent="1">
          <mxGeometry x="240" y="2763" width="200" height="107" as="geometry" />
        </mxCell>
        <mxCell id="dmPbnu_MyOu8hNa2xNqB-16" value="" style="endArrow=classic;startArrow=classic;html=1;rounded=0;entryX=0.5;entryY=1;entryDx=0;entryDy=0;entryPerimeter=0;strokeWidth=2;" edge="1" parent="1" source="dmPbnu_MyOu8hNa2xNqB-7" target="dmPbnu_MyOu8hNa2xNqB-11">
          <mxGeometry width="50" height="50" relative="1" as="geometry">
            <mxPoint x="-10" y="2810" as="sourcePoint" />
            <mxPoint x="40" y="2760" as="targetPoint" />
          </mxGeometry>
        </mxCell>
        <mxCell id="dmPbnu_MyOu8hNa2xNqB-18" value="" style="shape=cylinder3;whiteSpace=wrap;html=1;boundedLbl=1;backgroundOutline=1;size=15;rotation=90;" vertex="1" parent="1">
          <mxGeometry x="300" y="2850" width="30" height="183" as="geometry" />
        </mxCell>
        <mxCell id="dmPbnu_MyOu8hNa2xNqB-19" value="&lt;font style=&quot;font-size: 15px;&quot;&gt;SQL线程&lt;/font&gt;" style="text;strokeColor=none;fillColor=none;html=1;fontSize=24;fontStyle=1;verticalAlign=middle;align=center;fontFamily=Comic Sans MS;" vertex="1" parent="1">
          <mxGeometry x="265" y="2920" width="100" height="40" as="geometry" />
        </mxCell>
        <mxCell id="dmPbnu_MyOu8hNa2xNqB-23" value="" style="shape=cylinder3;whiteSpace=wrap;html=1;boundedLbl=1;backgroundOutline=1;size=15;rotation=90;" vertex="1" parent="1">
          <mxGeometry x="300" y="2900" width="30" height="183" as="geometry" />
        </mxCell>
        <mxCell id="dmPbnu_MyOu8hNa2xNqB-25" value="&lt;font style=&quot;font-size: 15px;&quot;&gt;SQL线程&lt;/font&gt;" style="text;strokeColor=none;fillColor=none;html=1;fontSize=24;fontStyle=1;verticalAlign=middle;align=center;fontFamily=Comic Sans MS;" vertex="1" parent="1">
          <mxGeometry x="265" y="2971.5" width="100" height="40" as="geometry" />
        </mxCell>
        <mxCell id="dmPbnu_MyOu8hNa2xNqB-30" value="" style="rounded=1;whiteSpace=wrap;html=1;strokeWidth=2;fillWeight=4;hachureGap=8;hachureAngle=45;fillColor=none;sketch=1;" vertex="1" parent="1">
          <mxGeometry x="180" y="2880" width="320" height="190" as="geometry" />
        </mxCell>
        <mxCell id="dmPbnu_MyOu8hNa2xNqB-31" value="&lt;span style=&quot;color: rgb(0, 0, 0); font-family: Helvetica; font-style: normal; font-variant-ligatures: normal; font-variant-caps: normal; font-weight: 700; letter-spacing: normal; orphans: 2; text-align: center; text-indent: 0px; text-transform: none; widows: 2; word-spacing: 0px; -webkit-text-stroke-width: 0px; background-color: rgb(251, 251, 251); text-decoration-thickness: initial; text-decoration-style: initial; text-decoration-color: initial; float: none; display: inline !important;&quot;&gt;&lt;font style=&quot;font-size: 15px;&quot;&gt;replica_parallel_workers控制个数&lt;/font&gt;&lt;/span&gt;" style="text;strokeColor=none;fillColor=none;html=1;fontSize=24;fontStyle=1;verticalAlign=middle;align=center;" vertex="1" parent="1">
          <mxGeometry x="300" y="2890" width="100" height="40" as="geometry" />
        </mxCell>
        <mxCell id="dmPbnu_MyOu8hNa2xNqB-34" value="" style="rounded=1;whiteSpace=wrap;html=1;strokeWidth=2;fillWeight=4;hachureGap=8;hachureAngle=45;fillColor=none;sketch=1;" vertex="1" parent="1">
          <mxGeometry x="-520" y="3480" width="1060" height="603" as="geometry" />
        </mxCell>
        <mxCell id="dmPbnu_MyOu8hNa2xNqB-35" value="&lt;font style=&quot;font-size: 24px;&quot;&gt;商品&lt;/font&gt;" style="shape=cylinder3;whiteSpace=wrap;html=1;boundedLbl=1;backgroundOutline=1;size=15;fillColor=#dae8fc;strokeColor=#6c8ebf;" vertex="1" parent="1">
          <mxGeometry x="-413" y="3800" width="183" height="150" as="geometry" />
        </mxCell>
        <mxCell id="dmPbnu_MyOu8hNa2xNqB-36" value="&lt;font style=&quot;font-size: 24px;&quot;&gt;订单&lt;/font&gt;" style="shape=cylinder3;whiteSpace=wrap;html=1;boundedLbl=1;backgroundOutline=1;size=15;fillColor=#ffe6cc;strokeColor=#d79b00;" vertex="1" parent="1">
          <mxGeometry x="-150" y="3800" width="183" height="150" as="geometry" />
        </mxCell>
        <mxCell id="dmPbnu_MyOu8hNa2xNqB-37" value="&lt;span style=&quot;font-size: 24px;&quot;&gt;用户&lt;/span&gt;" style="shape=cylinder3;whiteSpace=wrap;html=1;boundedLbl=1;backgroundOutline=1;size=15;fillColor=#d5e8d4;strokeColor=#82b366;" vertex="1" parent="1">
          <mxGeometry x="90" y="3800" width="183" height="150" as="geometry" />
        </mxCell>
        <mxCell id="dmPbnu_MyOu8hNa2xNqB-38" value="" style="rounded=1;whiteSpace=wrap;html=1;strokeWidth=2;fillWeight=4;hachureGap=8;hachureAngle=45;fillColor=none;sketch=1;" vertex="1" parent="1">
          <mxGeometry x="-170" y="3750" width="490" height="240" as="geometry" />
        </mxCell>
        <mxCell id="dmPbnu_MyOu8hNa2xNqB-39" value="" style="rounded=1;whiteSpace=wrap;html=1;strokeWidth=2;fillWeight=4;hachureGap=8;hachureAngle=45;fillColor=none;sketch=1;" vertex="1" parent="1">
          <mxGeometry x="-426.5" y="3750" width="210" height="233" as="geometry" />
        </mxCell>
        <mxCell id="dmPbnu_MyOu8hNa2xNqB-40" value="数据库实例：1" style="text;strokeColor=none;fillColor=none;html=1;fontSize=24;fontStyle=1;verticalAlign=middle;align=center;" vertex="1" parent="1">
          <mxGeometry x="-370" y="3690" width="100" height="40" as="geometry" />
        </mxCell>
        <mxCell id="dmPbnu_MyOu8hNa2xNqB-41" value="数据库实例：2" style="text;strokeColor=none;fillColor=none;html=1;fontSize=24;fontStyle=1;verticalAlign=middle;align=center;" vertex="1" parent="1">
          <mxGeometry x="20" y="3690" width="100" height="40" as="geometry" />
        </mxCell>
        <mxCell id="dmPbnu_MyOu8hNa2xNqB-42" value="XX电商" style="text;strokeColor=none;fillColor=none;html=1;fontSize=24;fontStyle=1;verticalAlign=middle;align=center;" vertex="1" parent="1">
          <mxGeometry x="-180" y="3560" width="220" height="40" as="geometry" />
        </mxCell>
        <mxCell id="dmPbnu_MyOu8hNa2xNqB-44" value="" style="rounded=1;whiteSpace=wrap;html=1;strokeWidth=2;fillWeight=4;hachureGap=8;hachureAngle=45;fillColor=none;sketch=1;" vertex="1" parent="1">
          <mxGeometry x="-480" y="4230" width="1010" height="1040" as="geometry" />
        </mxCell>
        <mxCell id="dmPbnu_MyOu8hNa2xNqB-48" value="&lt;font style=&quot;font-size: 36px;&quot;&gt;2022年order&lt;/font&gt;" style="shape=cylinder3;whiteSpace=wrap;html=1;boundedLbl=1;backgroundOutline=1;size=15;" vertex="1" parent="1">
          <mxGeometry x="-270" y="4290" width="580" height="280" as="geometry" />
        </mxCell>
        <mxCell id="dmPbnu_MyOu8hNa2xNqB-49" value="&lt;font style=&quot;font-size: 36px;&quot;&gt;2023年order&lt;/font&gt;" style="shape=cylinder3;whiteSpace=wrap;html=1;boundedLbl=1;backgroundOutline=1;size=15;" vertex="1" parent="1">
          <mxGeometry x="-270" y="4610" width="580" height="280" as="geometry" />
        </mxCell>
        <mxCell id="dmPbnu_MyOu8hNa2xNqB-50" value="&lt;font style=&quot;font-size: 36px;&quot;&gt;2024年order&lt;/font&gt;" style="shape=cylinder3;whiteSpace=wrap;html=1;boundedLbl=1;backgroundOutline=1;size=15;" vertex="1" parent="1">
          <mxGeometry x="-270" y="4940" width="580" height="280" as="geometry" />
        </mxCell>
        <mxCell id="dmPbnu_MyOu8hNa2xNqB-78" value="Assets" style="childLayout=tableLayout;recursiveResize=0;strokeColor=#98bf21;fillColor=#A7C942;shadow=1;" vertex="1" parent="1">
          <mxGeometry x="-610" y="5460" width="650" height="276" as="geometry" />
        </mxCell>
        <mxCell id="dmPbnu_MyOu8hNa2xNqB-79" style="shape=tableRow;horizontal=0;startSize=0;swimlaneHead=0;swimlaneBody=0;top=0;left=0;bottom=0;right=0;dropTarget=0;collapsible=0;recursiveResize=0;expand=0;fontStyle=0;strokeColor=inherit;fillColor=#ffffff;" vertex="1" parent="dmPbnu_MyOu8hNa2xNqB-78">
          <mxGeometry width="650" height="58" as="geometry" />
        </mxCell>
        <mxCell id="dmPbnu_MyOu8hNa2xNqB-80" value="id" style="connectable=0;recursiveResize=0;strokeColor=inherit;fillColor=#A7C942;align=center;fontStyle=1;fontColor=#FFFFFF;html=1;" vertex="1" parent="dmPbnu_MyOu8hNa2xNqB-79">
          <mxGeometry width="216" height="58" as="geometry">
            <mxRectangle width="216" height="58" as="alternateBounds" />
          </mxGeometry>
        </mxCell>
        <mxCell id="dmPbnu_MyOu8hNa2xNqB-81" value="name" style="connectable=0;recursiveResize=0;strokeColor=inherit;fillColor=#A7C942;align=center;fontStyle=1;fontColor=#FFFFFF;html=1;" vertex="1" parent="dmPbnu_MyOu8hNa2xNqB-79">
          <mxGeometry x="216" width="218" height="58" as="geometry">
            <mxRectangle width="218" height="58" as="alternateBounds" />
          </mxGeometry>
        </mxCell>
        <mxCell id="dmPbnu_MyOu8hNa2xNqB-82" value="age" style="connectable=0;recursiveResize=0;strokeColor=inherit;fillColor=#A7C942;align=center;fontStyle=1;fontColor=#FFFFFF;html=1;" vertex="1" parent="dmPbnu_MyOu8hNa2xNqB-79">
          <mxGeometry x="434" width="216" height="58" as="geometry">
            <mxRectangle width="216" height="58" as="alternateBounds" />
          </mxGeometry>
        </mxCell>
        <mxCell id="dmPbnu_MyOu8hNa2xNqB-83" value="" style="shape=tableRow;horizontal=0;startSize=0;swimlaneHead=0;swimlaneBody=0;top=0;left=0;bottom=0;right=0;dropTarget=0;collapsible=0;recursiveResize=0;expand=0;fontStyle=0;strokeColor=inherit;fillColor=#ffffff;" vertex="1" parent="dmPbnu_MyOu8hNa2xNqB-78">
          <mxGeometry y="58" width="650" height="52" as="geometry" />
        </mxCell>
        <mxCell id="dmPbnu_MyOu8hNa2xNqB-84" value="1" style="connectable=0;recursiveResize=0;strokeColor=inherit;fillColor=inherit;align=center;whiteSpace=wrap;html=1;" vertex="1" parent="dmPbnu_MyOu8hNa2xNqB-83">
          <mxGeometry width="216" height="52" as="geometry">
            <mxRectangle width="216" height="52" as="alternateBounds" />
          </mxGeometry>
        </mxCell>
        <mxCell id="dmPbnu_MyOu8hNa2xNqB-85" value="test1" style="connectable=0;recursiveResize=0;strokeColor=inherit;fillColor=inherit;align=center;whiteSpace=wrap;html=1;" vertex="1" parent="dmPbnu_MyOu8hNa2xNqB-83">
          <mxGeometry x="216" width="218" height="52" as="geometry">
            <mxRectangle width="218" height="52" as="alternateBounds" />
          </mxGeometry>
        </mxCell>
        <mxCell id="dmPbnu_MyOu8hNa2xNqB-86" value="1" style="connectable=0;recursiveResize=0;strokeColor=inherit;fillColor=inherit;align=center;whiteSpace=wrap;html=1;" vertex="1" parent="dmPbnu_MyOu8hNa2xNqB-83">
          <mxGeometry x="434" width="216" height="52" as="geometry">
            <mxRectangle width="216" height="52" as="alternateBounds" />
          </mxGeometry>
        </mxCell>
        <mxCell id="dmPbnu_MyOu8hNa2xNqB-87" value="" style="shape=tableRow;horizontal=0;startSize=0;swimlaneHead=0;swimlaneBody=0;top=0;left=0;bottom=0;right=0;dropTarget=0;collapsible=0;recursiveResize=0;expand=0;fontStyle=1;strokeColor=inherit;fillColor=#EAF2D3;" vertex="1" parent="dmPbnu_MyOu8hNa2xNqB-78">
          <mxGeometry y="110" width="650" height="54" as="geometry" />
        </mxCell>
        <mxCell id="dmPbnu_MyOu8hNa2xNqB-88" value="2" style="connectable=0;recursiveResize=0;strokeColor=inherit;fillColor=inherit;whiteSpace=wrap;html=1;" vertex="1" parent="dmPbnu_MyOu8hNa2xNqB-87">
          <mxGeometry width="216" height="54" as="geometry">
            <mxRectangle width="216" height="54" as="alternateBounds" />
          </mxGeometry>
        </mxCell>
        <mxCell id="dmPbnu_MyOu8hNa2xNqB-89" value="test2" style="connectable=0;recursiveResize=0;strokeColor=inherit;fillColor=inherit;whiteSpace=wrap;html=1;" vertex="1" parent="dmPbnu_MyOu8hNa2xNqB-87">
          <mxGeometry x="216" width="218" height="54" as="geometry">
            <mxRectangle width="218" height="54" as="alternateBounds" />
          </mxGeometry>
        </mxCell>
        <mxCell id="dmPbnu_MyOu8hNa2xNqB-90" value="2" style="connectable=0;recursiveResize=0;strokeColor=inherit;fillColor=inherit;whiteSpace=wrap;html=1;" vertex="1" parent="dmPbnu_MyOu8hNa2xNqB-87">
          <mxGeometry x="434" width="216" height="54" as="geometry">
            <mxRectangle width="216" height="54" as="alternateBounds" />
          </mxGeometry>
        </mxCell>
        <mxCell id="dmPbnu_MyOu8hNa2xNqB-91" value="" style="shape=tableRow;horizontal=0;startSize=0;swimlaneHead=0;swimlaneBody=0;top=0;left=0;bottom=0;right=0;dropTarget=0;collapsible=0;recursiveResize=0;expand=0;fontStyle=0;strokeColor=inherit;fillColor=#ffffff;" vertex="1" parent="dmPbnu_MyOu8hNa2xNqB-78">
          <mxGeometry y="164" width="650" height="58" as="geometry" />
        </mxCell>
        <mxCell id="dmPbnu_MyOu8hNa2xNqB-92" value="3" style="connectable=0;recursiveResize=0;strokeColor=inherit;fillColor=inherit;fontStyle=0;align=center;whiteSpace=wrap;html=1;" vertex="1" parent="dmPbnu_MyOu8hNa2xNqB-91">
          <mxGeometry width="216" height="58" as="geometry">
            <mxRectangle width="216" height="58" as="alternateBounds" />
          </mxGeometry>
        </mxCell>
        <mxCell id="dmPbnu_MyOu8hNa2xNqB-93" value="test3" style="connectable=0;recursiveResize=0;strokeColor=inherit;fillColor=inherit;fontStyle=0;align=center;whiteSpace=wrap;html=1;" vertex="1" parent="dmPbnu_MyOu8hNa2xNqB-91">
          <mxGeometry x="216" width="218" height="58" as="geometry">
            <mxRectangle width="218" height="58" as="alternateBounds" />
          </mxGeometry>
        </mxCell>
        <mxCell id="dmPbnu_MyOu8hNa2xNqB-94" value="3" style="connectable=0;recursiveResize=0;strokeColor=inherit;fillColor=inherit;fontStyle=0;align=center;whiteSpace=wrap;html=1;" vertex="1" parent="dmPbnu_MyOu8hNa2xNqB-91">
          <mxGeometry x="434" width="216" height="58" as="geometry">
            <mxRectangle width="216" height="58" as="alternateBounds" />
          </mxGeometry>
        </mxCell>
        <mxCell id="dmPbnu_MyOu8hNa2xNqB-95" value="" style="shape=tableRow;horizontal=0;startSize=0;swimlaneHead=0;swimlaneBody=0;top=0;left=0;bottom=0;right=0;dropTarget=0;collapsible=0;recursiveResize=0;expand=0;fontStyle=1;strokeColor=inherit;fillColor=#EAF2D3;" vertex="1" parent="dmPbnu_MyOu8hNa2xNqB-78">
          <mxGeometry y="222" width="650" height="54" as="geometry" />
        </mxCell>
        <mxCell id="dmPbnu_MyOu8hNa2xNqB-96" value="4" style="connectable=0;recursiveResize=0;strokeColor=inherit;fillColor=inherit;whiteSpace=wrap;html=1;" vertex="1" parent="dmPbnu_MyOu8hNa2xNqB-95">
          <mxGeometry width="216" height="54" as="geometry">
            <mxRectangle width="216" height="54" as="alternateBounds" />
          </mxGeometry>
        </mxCell>
        <mxCell id="dmPbnu_MyOu8hNa2xNqB-97" value="test4" style="connectable=0;recursiveResize=0;strokeColor=inherit;fillColor=inherit;whiteSpace=wrap;html=1;" vertex="1" parent="dmPbnu_MyOu8hNa2xNqB-95">
          <mxGeometry x="216" width="218" height="54" as="geometry">
            <mxRectangle width="218" height="54" as="alternateBounds" />
          </mxGeometry>
        </mxCell>
        <mxCell id="dmPbnu_MyOu8hNa2xNqB-98" value="4" style="connectable=0;recursiveResize=0;strokeColor=inherit;fillColor=inherit;whiteSpace=wrap;html=1;" vertex="1" parent="dmPbnu_MyOu8hNa2xNqB-95">
          <mxGeometry x="434" width="216" height="54" as="geometry">
            <mxRectangle width="216" height="54" as="alternateBounds" />
          </mxGeometry>
        </mxCell>
        <mxCell id="dmPbnu_MyOu8hNa2xNqB-99" value="Assets" style="childLayout=tableLayout;recursiveResize=0;strokeColor=#98bf21;fillColor=#A7C942;shadow=1;" vertex="1" parent="1">
          <mxGeometry x="64" y="5460" width="650" height="280" as="geometry" />
        </mxCell>
        <mxCell id="dmPbnu_MyOu8hNa2xNqB-100" style="shape=tableRow;horizontal=0;startSize=0;swimlaneHead=0;swimlaneBody=0;top=0;left=0;bottom=0;right=0;dropTarget=0;collapsible=0;recursiveResize=0;expand=0;fontStyle=0;strokeColor=inherit;fillColor=#ffffff;" vertex="1" parent="dmPbnu_MyOu8hNa2xNqB-99">
          <mxGeometry width="650" height="58" as="geometry" />
        </mxCell>
        <mxCell id="dmPbnu_MyOu8hNa2xNqB-101" value="id" style="connectable=0;recursiveResize=0;strokeColor=inherit;fillColor=#A7C942;align=center;fontStyle=1;fontColor=#FFFFFF;html=1;" vertex="1" parent="dmPbnu_MyOu8hNa2xNqB-100">
          <mxGeometry width="216" height="58" as="geometry">
            <mxRectangle width="216" height="58" as="alternateBounds" />
          </mxGeometry>
        </mxCell>
        <mxCell id="dmPbnu_MyOu8hNa2xNqB-102" value="phone" style="connectable=0;recursiveResize=0;strokeColor=inherit;fillColor=#A7C942;align=center;fontStyle=1;fontColor=#FFFFFF;html=1;" vertex="1" parent="dmPbnu_MyOu8hNa2xNqB-100">
          <mxGeometry x="216" width="218" height="58" as="geometry">
            <mxRectangle width="218" height="58" as="alternateBounds" />
          </mxGeometry>
        </mxCell>
        <mxCell id="dmPbnu_MyOu8hNa2xNqB-103" value="desc" style="connectable=0;recursiveResize=0;strokeColor=inherit;fillColor=#A7C942;align=center;fontStyle=1;fontColor=#FFFFFF;html=1;" vertex="1" parent="dmPbnu_MyOu8hNa2xNqB-100">
          <mxGeometry x="434" width="216" height="58" as="geometry">
            <mxRectangle width="216" height="58" as="alternateBounds" />
          </mxGeometry>
        </mxCell>
        <mxCell id="dmPbnu_MyOu8hNa2xNqB-104" value="" style="shape=tableRow;horizontal=0;startSize=0;swimlaneHead=0;swimlaneBody=0;top=0;left=0;bottom=0;right=0;dropTarget=0;collapsible=0;recursiveResize=0;expand=0;fontStyle=0;strokeColor=inherit;fillColor=#ffffff;" vertex="1" parent="dmPbnu_MyOu8hNa2xNqB-99">
          <mxGeometry y="58" width="650" height="56" as="geometry" />
        </mxCell>
        <mxCell id="dmPbnu_MyOu8hNa2xNqB-105" value="1" style="connectable=0;recursiveResize=0;strokeColor=inherit;fillColor=inherit;align=center;whiteSpace=wrap;html=1;" vertex="1" parent="dmPbnu_MyOu8hNa2xNqB-104">
          <mxGeometry width="216" height="56" as="geometry">
            <mxRectangle width="216" height="56" as="alternateBounds" />
          </mxGeometry>
        </mxCell>
        <mxCell id="dmPbnu_MyOu8hNa2xNqB-106" value="153****1111" style="connectable=0;recursiveResize=0;strokeColor=inherit;fillColor=inherit;align=center;whiteSpace=wrap;html=1;" vertex="1" parent="dmPbnu_MyOu8hNa2xNqB-104">
          <mxGeometry x="216" width="218" height="56" as="geometry">
            <mxRectangle width="218" height="56" as="alternateBounds" />
          </mxGeometry>
        </mxCell>
        <mxCell id="dmPbnu_MyOu8hNa2xNqB-107" value="1" style="connectable=0;recursiveResize=0;strokeColor=inherit;fillColor=inherit;align=center;whiteSpace=wrap;html=1;" vertex="1" parent="dmPbnu_MyOu8hNa2xNqB-104">
          <mxGeometry x="434" width="216" height="56" as="geometry">
            <mxRectangle width="216" height="56" as="alternateBounds" />
          </mxGeometry>
        </mxCell>
        <mxCell id="dmPbnu_MyOu8hNa2xNqB-108" value="" style="shape=tableRow;horizontal=0;startSize=0;swimlaneHead=0;swimlaneBody=0;top=0;left=0;bottom=0;right=0;dropTarget=0;collapsible=0;recursiveResize=0;expand=0;fontStyle=1;strokeColor=inherit;fillColor=#EAF2D3;" vertex="1" parent="dmPbnu_MyOu8hNa2xNqB-99">
          <mxGeometry y="114" width="650" height="54" as="geometry" />
        </mxCell>
        <mxCell id="dmPbnu_MyOu8hNa2xNqB-109" value="2" style="connectable=0;recursiveResize=0;strokeColor=inherit;fillColor=inherit;whiteSpace=wrap;html=1;" vertex="1" parent="dmPbnu_MyOu8hNa2xNqB-108">
          <mxGeometry width="216" height="54" as="geometry">
            <mxRectangle width="216" height="54" as="alternateBounds" />
          </mxGeometry>
        </mxCell>
        <mxCell id="dmPbnu_MyOu8hNa2xNqB-110" value="153****1112" style="connectable=0;recursiveResize=0;strokeColor=inherit;fillColor=inherit;whiteSpace=wrap;html=1;" vertex="1" parent="dmPbnu_MyOu8hNa2xNqB-108">
          <mxGeometry x="216" width="218" height="54" as="geometry">
            <mxRectangle width="218" height="54" as="alternateBounds" />
          </mxGeometry>
        </mxCell>
        <mxCell id="dmPbnu_MyOu8hNa2xNqB-111" value="2" style="connectable=0;recursiveResize=0;strokeColor=inherit;fillColor=inherit;whiteSpace=wrap;html=1;" vertex="1" parent="dmPbnu_MyOu8hNa2xNqB-108">
          <mxGeometry x="434" width="216" height="54" as="geometry">
            <mxRectangle width="216" height="54" as="alternateBounds" />
          </mxGeometry>
        </mxCell>
        <mxCell id="dmPbnu_MyOu8hNa2xNqB-112" value="" style="shape=tableRow;horizontal=0;startSize=0;swimlaneHead=0;swimlaneBody=0;top=0;left=0;bottom=0;right=0;dropTarget=0;collapsible=0;recursiveResize=0;expand=0;fontStyle=0;strokeColor=inherit;fillColor=#ffffff;" vertex="1" parent="dmPbnu_MyOu8hNa2xNqB-99">
          <mxGeometry y="168" width="650" height="58" as="geometry" />
        </mxCell>
        <mxCell id="dmPbnu_MyOu8hNa2xNqB-113" value="3" style="connectable=0;recursiveResize=0;strokeColor=inherit;fillColor=inherit;fontStyle=0;align=center;whiteSpace=wrap;html=1;" vertex="1" parent="dmPbnu_MyOu8hNa2xNqB-112">
          <mxGeometry width="216" height="58" as="geometry">
            <mxRectangle width="216" height="58" as="alternateBounds" />
          </mxGeometry>
        </mxCell>
        <mxCell id="dmPbnu_MyOu8hNa2xNqB-114" value="153****1113" style="connectable=0;recursiveResize=0;strokeColor=inherit;fillColor=inherit;fontStyle=0;align=center;whiteSpace=wrap;html=1;" vertex="1" parent="dmPbnu_MyOu8hNa2xNqB-112">
          <mxGeometry x="216" width="218" height="58" as="geometry">
            <mxRectangle width="218" height="58" as="alternateBounds" />
          </mxGeometry>
        </mxCell>
        <mxCell id="dmPbnu_MyOu8hNa2xNqB-115" value="3" style="connectable=0;recursiveResize=0;strokeColor=inherit;fillColor=inherit;fontStyle=0;align=center;whiteSpace=wrap;html=1;" vertex="1" parent="dmPbnu_MyOu8hNa2xNqB-112">
          <mxGeometry x="434" width="216" height="58" as="geometry">
            <mxRectangle width="216" height="58" as="alternateBounds" />
          </mxGeometry>
        </mxCell>
        <mxCell id="dmPbnu_MyOu8hNa2xNqB-116" value="" style="shape=tableRow;horizontal=0;startSize=0;swimlaneHead=0;swimlaneBody=0;top=0;left=0;bottom=0;right=0;dropTarget=0;collapsible=0;recursiveResize=0;expand=0;fontStyle=1;strokeColor=inherit;fillColor=#EAF2D3;" vertex="1" parent="dmPbnu_MyOu8hNa2xNqB-99">
          <mxGeometry y="226" width="650" height="54" as="geometry" />
        </mxCell>
        <mxCell id="dmPbnu_MyOu8hNa2xNqB-117" value="4" style="connectable=0;recursiveResize=0;strokeColor=inherit;fillColor=inherit;whiteSpace=wrap;html=1;" vertex="1" parent="dmPbnu_MyOu8hNa2xNqB-116">
          <mxGeometry width="216" height="54" as="geometry">
            <mxRectangle width="216" height="54" as="alternateBounds" />
          </mxGeometry>
        </mxCell>
        <mxCell id="dmPbnu_MyOu8hNa2xNqB-118" value="153****1114" style="connectable=0;recursiveResize=0;strokeColor=inherit;fillColor=inherit;whiteSpace=wrap;html=1;" vertex="1" parent="dmPbnu_MyOu8hNa2xNqB-116">
          <mxGeometry x="216" width="218" height="54" as="geometry">
            <mxRectangle width="218" height="54" as="alternateBounds" />
          </mxGeometry>
        </mxCell>
        <mxCell id="dmPbnu_MyOu8hNa2xNqB-119" value="4" style="connectable=0;recursiveResize=0;strokeColor=inherit;fillColor=inherit;whiteSpace=wrap;html=1;" vertex="1" parent="dmPbnu_MyOu8hNa2xNqB-116">
          <mxGeometry x="434" width="216" height="54" as="geometry">
            <mxRectangle width="216" height="54" as="alternateBounds" />
          </mxGeometry>
        </mxCell>
        <mxCell id="dmPbnu_MyOu8hNa2xNqB-120" value="Assets" style="childLayout=tableLayout;recursiveResize=0;strokeColor=#98bf21;fillColor=#A7C942;shadow=1;" vertex="1" parent="1">
          <mxGeometry x="-617" y="5800" width="650" height="276" as="geometry" />
        </mxCell>
        <mxCell id="dmPbnu_MyOu8hNa2xNqB-121" style="shape=tableRow;horizontal=0;startSize=0;swimlaneHead=0;swimlaneBody=0;top=0;left=0;bottom=0;right=0;dropTarget=0;collapsible=0;recursiveResize=0;expand=0;fontStyle=0;strokeColor=inherit;fillColor=#ffffff;" vertex="1" parent="dmPbnu_MyOu8hNa2xNqB-120">
          <mxGeometry width="650" height="58" as="geometry" />
        </mxCell>
        <mxCell id="dmPbnu_MyOu8hNa2xNqB-122" value="id" style="connectable=0;recursiveResize=0;strokeColor=inherit;fillColor=#A7C942;align=center;fontStyle=1;fontColor=#FFFFFF;html=1;" vertex="1" parent="dmPbnu_MyOu8hNa2xNqB-121">
          <mxGeometry width="216" height="58" as="geometry">
            <mxRectangle width="216" height="58" as="alternateBounds" />
          </mxGeometry>
        </mxCell>
        <mxCell id="dmPbnu_MyOu8hNa2xNqB-123" value="name" style="connectable=0;recursiveResize=0;strokeColor=inherit;fillColor=#A7C942;align=center;fontStyle=1;fontColor=#FFFFFF;html=1;" vertex="1" parent="dmPbnu_MyOu8hNa2xNqB-121">
          <mxGeometry x="216" width="218" height="58" as="geometry">
            <mxRectangle width="218" height="58" as="alternateBounds" />
          </mxGeometry>
        </mxCell>
        <mxCell id="dmPbnu_MyOu8hNa2xNqB-124" value="age" style="connectable=0;recursiveResize=0;strokeColor=inherit;fillColor=#A7C942;align=center;fontStyle=1;fontColor=#FFFFFF;html=1;" vertex="1" parent="dmPbnu_MyOu8hNa2xNqB-121">
          <mxGeometry x="434" width="216" height="58" as="geometry">
            <mxRectangle width="216" height="58" as="alternateBounds" />
          </mxGeometry>
        </mxCell>
        <mxCell id="dmPbnu_MyOu8hNa2xNqB-125" value="" style="shape=tableRow;horizontal=0;startSize=0;swimlaneHead=0;swimlaneBody=0;top=0;left=0;bottom=0;right=0;dropTarget=0;collapsible=0;recursiveResize=0;expand=0;fontStyle=0;strokeColor=inherit;fillColor=#ffffff;" vertex="1" parent="dmPbnu_MyOu8hNa2xNqB-120">
          <mxGeometry y="58" width="650" height="52" as="geometry" />
        </mxCell>
        <mxCell id="dmPbnu_MyOu8hNa2xNqB-126" value="5" style="connectable=0;recursiveResize=0;strokeColor=inherit;fillColor=inherit;align=center;whiteSpace=wrap;html=1;" vertex="1" parent="dmPbnu_MyOu8hNa2xNqB-125">
          <mxGeometry width="216" height="52" as="geometry">
            <mxRectangle width="216" height="52" as="alternateBounds" />
          </mxGeometry>
        </mxCell>
        <mxCell id="dmPbnu_MyOu8hNa2xNqB-127" value="test1" style="connectable=0;recursiveResize=0;strokeColor=inherit;fillColor=inherit;align=center;whiteSpace=wrap;html=1;" vertex="1" parent="dmPbnu_MyOu8hNa2xNqB-125">
          <mxGeometry x="216" width="218" height="52" as="geometry">
            <mxRectangle width="218" height="52" as="alternateBounds" />
          </mxGeometry>
        </mxCell>
        <mxCell id="dmPbnu_MyOu8hNa2xNqB-128" value="1" style="connectable=0;recursiveResize=0;strokeColor=inherit;fillColor=inherit;align=center;whiteSpace=wrap;html=1;" vertex="1" parent="dmPbnu_MyOu8hNa2xNqB-125">
          <mxGeometry x="434" width="216" height="52" as="geometry">
            <mxRectangle width="216" height="52" as="alternateBounds" />
          </mxGeometry>
        </mxCell>
        <mxCell id="dmPbnu_MyOu8hNa2xNqB-129" value="" style="shape=tableRow;horizontal=0;startSize=0;swimlaneHead=0;swimlaneBody=0;top=0;left=0;bottom=0;right=0;dropTarget=0;collapsible=0;recursiveResize=0;expand=0;fontStyle=1;strokeColor=inherit;fillColor=#EAF2D3;" vertex="1" parent="dmPbnu_MyOu8hNa2xNqB-120">
          <mxGeometry y="110" width="650" height="54" as="geometry" />
        </mxCell>
        <mxCell id="dmPbnu_MyOu8hNa2xNqB-130" value="6" style="connectable=0;recursiveResize=0;strokeColor=inherit;fillColor=inherit;whiteSpace=wrap;html=1;" vertex="1" parent="dmPbnu_MyOu8hNa2xNqB-129">
          <mxGeometry width="216" height="54" as="geometry">
            <mxRectangle width="216" height="54" as="alternateBounds" />
          </mxGeometry>
        </mxCell>
        <mxCell id="dmPbnu_MyOu8hNa2xNqB-131" value="test2" style="connectable=0;recursiveResize=0;strokeColor=inherit;fillColor=inherit;whiteSpace=wrap;html=1;" vertex="1" parent="dmPbnu_MyOu8hNa2xNqB-129">
          <mxGeometry x="216" width="218" height="54" as="geometry">
            <mxRectangle width="218" height="54" as="alternateBounds" />
          </mxGeometry>
        </mxCell>
        <mxCell id="dmPbnu_MyOu8hNa2xNqB-132" value="2" style="connectable=0;recursiveResize=0;strokeColor=inherit;fillColor=inherit;whiteSpace=wrap;html=1;" vertex="1" parent="dmPbnu_MyOu8hNa2xNqB-129">
          <mxGeometry x="434" width="216" height="54" as="geometry">
            <mxRectangle width="216" height="54" as="alternateBounds" />
          </mxGeometry>
        </mxCell>
        <mxCell id="dmPbnu_MyOu8hNa2xNqB-133" value="" style="shape=tableRow;horizontal=0;startSize=0;swimlaneHead=0;swimlaneBody=0;top=0;left=0;bottom=0;right=0;dropTarget=0;collapsible=0;recursiveResize=0;expand=0;fontStyle=0;strokeColor=inherit;fillColor=#ffffff;" vertex="1" parent="dmPbnu_MyOu8hNa2xNqB-120">
          <mxGeometry y="164" width="650" height="58" as="geometry" />
        </mxCell>
        <mxCell id="dmPbnu_MyOu8hNa2xNqB-134" value="7" style="connectable=0;recursiveResize=0;strokeColor=inherit;fillColor=inherit;fontStyle=0;align=center;whiteSpace=wrap;html=1;" vertex="1" parent="dmPbnu_MyOu8hNa2xNqB-133">
          <mxGeometry width="216" height="58" as="geometry">
            <mxRectangle width="216" height="58" as="alternateBounds" />
          </mxGeometry>
        </mxCell>
        <mxCell id="dmPbnu_MyOu8hNa2xNqB-135" value="test3" style="connectable=0;recursiveResize=0;strokeColor=inherit;fillColor=inherit;fontStyle=0;align=center;whiteSpace=wrap;html=1;" vertex="1" parent="dmPbnu_MyOu8hNa2xNqB-133">
          <mxGeometry x="216" width="218" height="58" as="geometry">
            <mxRectangle width="218" height="58" as="alternateBounds" />
          </mxGeometry>
        </mxCell>
        <mxCell id="dmPbnu_MyOu8hNa2xNqB-136" value="3" style="connectable=0;recursiveResize=0;strokeColor=inherit;fillColor=inherit;fontStyle=0;align=center;whiteSpace=wrap;html=1;" vertex="1" parent="dmPbnu_MyOu8hNa2xNqB-133">
          <mxGeometry x="434" width="216" height="58" as="geometry">
            <mxRectangle width="216" height="58" as="alternateBounds" />
          </mxGeometry>
        </mxCell>
        <mxCell id="dmPbnu_MyOu8hNa2xNqB-137" value="" style="shape=tableRow;horizontal=0;startSize=0;swimlaneHead=0;swimlaneBody=0;top=0;left=0;bottom=0;right=0;dropTarget=0;collapsible=0;recursiveResize=0;expand=0;fontStyle=1;strokeColor=inherit;fillColor=#EAF2D3;" vertex="1" parent="dmPbnu_MyOu8hNa2xNqB-120">
          <mxGeometry y="222" width="650" height="54" as="geometry" />
        </mxCell>
        <mxCell id="dmPbnu_MyOu8hNa2xNqB-138" value="8" style="connectable=0;recursiveResize=0;strokeColor=inherit;fillColor=inherit;whiteSpace=wrap;html=1;" vertex="1" parent="dmPbnu_MyOu8hNa2xNqB-137">
          <mxGeometry width="216" height="54" as="geometry">
            <mxRectangle width="216" height="54" as="alternateBounds" />
          </mxGeometry>
        </mxCell>
        <mxCell id="dmPbnu_MyOu8hNa2xNqB-139" value="test4" style="connectable=0;recursiveResize=0;strokeColor=inherit;fillColor=inherit;whiteSpace=wrap;html=1;" vertex="1" parent="dmPbnu_MyOu8hNa2xNqB-137">
          <mxGeometry x="216" width="218" height="54" as="geometry">
            <mxRectangle width="218" height="54" as="alternateBounds" />
          </mxGeometry>
        </mxCell>
        <mxCell id="dmPbnu_MyOu8hNa2xNqB-140" value="4" style="connectable=0;recursiveResize=0;strokeColor=inherit;fillColor=inherit;whiteSpace=wrap;html=1;" vertex="1" parent="dmPbnu_MyOu8hNa2xNqB-137">
          <mxGeometry x="434" width="216" height="54" as="geometry">
            <mxRectangle width="216" height="54" as="alternateBounds" />
          </mxGeometry>
        </mxCell>
      </root>
    </mxGraphModel>
  </diagram>
</mxfile>
